<?xml version="1.0" encoding="UTF-8" standalone="no"?>
<svg xmlns="http://www.w3.org/2000/svg" 
     width="55" 
     height="55" 
     viewBox="27.5 36.8 55 70">
<g xmlns="http://www.w3.org/2000/svg" id="g9" transform="translate(-3.4366319,-1.7437611) scale(0.78)"><path style="fill:#cf3a0e;stroke:#000000;stroke-width:0.505;stroke-linejoin:round;stroke-dasharray:none" d="m 76.760001,88.349996 c 7.913118,0 8.08,6.360882 8.08,9.499999 l 3e-6,30.399995 c 0,2.85001 3.03,4.75001 6.059997,4.75 3.03,1e-5 6.06,-1.89999 6.06,-4.75 V 94.999996 c 0,-11.24779 -7.865677,-17.871575 -19.716703,-18.046447 -0.160372,-0.0024 -0.804774,0 -0.966596,0 0.290934,0.156248 -19.716703,-0.62488 -19.716703,18.046399 v 33.249992 c 0,2.85001 3.03,4.75001 6.06,4.75 3.029997,1e-5 6.059997,-1.89999 6.059997,-4.75 l 3e-6,-30.399992 c 0.07491,-3.208436 -0.124657,-9.612625 8.080002,-9.499952 z" id="path1-4-3" transform="translate(-1.01,5.3875131)"/><path style="fill:#0ecf8b;fill-opacity:1;stroke:#000000;stroke-width:0.505;stroke-linejoin:round;stroke-dasharray:none" transform="matrix(1,0,0,-1,-1.01,183.34999)" d="m 76.760001,88.349996 c 7.07,0 8.08,4.75 8.08,9.5 l 3e-6,30.399994 c 0,2.85001 3.03,4.75001 6.059997,4.75 3.03,1e-5 6.06,-1.89999 6.06,-4.75 V 94.999996 c 0,-11.399999 -8.08,-18.049999 -20.2,-18.049999 -12.12,0 -20.2,6.65 -20.2,18.049999 v 33.249994 c 0,2.85001 3.03,4.75001 6.06,4.75 3.029997,1e-5 6.059997,-1.89999 6.059997,-4.75 l 3e-6,-30.399994 c 0,-4.75 1.01,-9.5 8.08,-9.5 z" id="path1-4-2-3"/><path id="path2" d="m 75.750001,93.737509 c -7.913118,0 -8.08,6.360881 -8.08,9.500001 l -3e-6,30.39999 c 0,2.85001 -3.03,4.75001 -6.059997,4.75 -3.03,1e-5 -6.06,-1.89999 -6.06,-4.75 v -33.24999 c 0,-11.247791 7.865677,-17.871577 19.716703,-18.046449 0.08026,-0.0012 0.281741,-0.0012 0.483297,-8.99e-4" style="fill:#cf3a0e;stroke:#000000;stroke-width:0.505;stroke-linejoin:round;stroke-dasharray:none"/>

<path xmlns="http://www.w3.org/2000/svg" style="fill:#cf3a0e;stroke:#000000;stroke-width:0.505;stroke-linejoin:round;stroke-dasharray:none" d="m 76.760001,88.349996 c 7.913118,0 8.08,6.360882 8.08,9.499999 l 3e-6,30.399995 c 0,2.85001 3.03,4.75001 6.059997,4.75 3.03,1e-5 6.06,-1.89999 6.06,-4.75 V 94.999996 c 0,-11.24779 -7.865677,-17.871575 -19.716703,-18.046447 -0.160372,-0.0024 -0.804774,0 -0.966596,0 0.290934,0.156248 -19.716703,-0.62488 -19.716703,18.046399 v 33.249992 c 0,2.85001 3.03,4.75001 6.06,4.75 3.029997,1e-5 6.059997,-1.89999 6.059997,-4.75 l 3e-6,-30.399992 c 0.07491,-3.208436 -0.124657,-9.612625 8.080002,-9.499952 z" id="path1-4-3" transform="translate(-1.01,5.3875131)"/>
<path xmlns="http://www.w3.org/2000/svg" style="fill:#0ecf8b;fill-opacity:1;stroke:#000000;stroke-width:0.505;stroke-linejoin:round;stroke-dasharray:none" transform="matrix(1,0,0,-1,-1.01,183.34999)" d="m 76.760001,88.349996 c 7.07,0 8.08,4.75 8.08,9.5 l 3e-6,30.399994 c 0,2.85001 3.03,4.75001 6.059997,4.75 3.03,1e-5 6.06,-1.89999 6.06,-4.75 V 94.999996 c 0,-11.399999 -8.08,-18.049999 -20.2,-18.049999 -12.12,0 -20.2,6.65 -20.2,18.049999 v 33.249994 c 0,2.85001 3.03,4.75001 6.06,4.75 3.029997,1e-5 6.059997,-1.89999 6.059997,-4.75 l 3e-6,-30.399994 c 0,-4.75 1.01,-9.5 8.08,-9.5 z" id="path1-4-2-3"/>
<path xmlns="http://www.w3.org/2000/svg" id="path2" d="m 75.750001,93.737509 c -7.913118,0 -8.08,6.360881 -8.08,9.500001 l -3e-6,30.39999 c 0,2.85001 -3.03,4.75001 -6.059997,4.75 -3.03,1e-5 -6.06,-1.89999 -6.06,-4.75 v -33.24999 c 0,-11.247791 7.865677,-17.871577 19.716703,-18.046449 0.08026,-0.0012 0.281741,-0.0012 0.483297,-8.99e-4" style="fill:#cf3a0e;stroke:#000000;stroke-width:0.505;stroke-linejoin:round;stroke-dasharray:none"/>
</g>

</svg>